<svg width="32" height="22" viewBox="0 0 32 22" fill="none" xmlns="http://www.w3.org/2000/svg">
<path d="M25.8 8.305C24.8933 3.56125 20.8533 0 16 0C12.1467 0 8.81333 2.255 7.14667 5.555C3.13333 5.995 0 9.4875 0 13.75C0 18.3012 3.58667 22 8 22H25.3333C29.0133 22 32 18.92 32 15.125C32 11.495 29.2667 8.5525 25.8 8.305ZM25.3333 19.25H8C5.05333 19.25 2.66667 16.7888 2.66667 13.75C2.66667 10.7112 5.05333 8.25 8 8.25C10.9467 8.25 13.3333 10.7112 13.3333 13.75H16C16 9.955 13.52 6.765 10.1333 5.8025C11.48 3.96 13.6 2.75 16 2.75C20.04 2.75 23.3333 6.14625 23.3333 10.3125V11H25.3333C27.5333 11 29.3333 12.8563 29.3333 15.125C29.3333 17.3937 27.5333 19.25 25.3333 19.25Z" fill="black"/>
</svg>
