<svg width="30" height="29" viewBox="0 0 30 29" fill="none" xmlns="http://www.w3.org/2000/svg">
<path d="M11.4286 8.57129V17.1427L18.1429 21.2856L19.2857 19.5713L13.5714 16.1427V8.57129H11.4286Z" fill="#0F1C2E"/>
<path d="M22.7429 14.2857C22.8143 14.7572 22.8571 15.2286 22.8571 15.7143C22.8571 21.2857 18.4286 25.7143 12.8571 25.7143C7.28571 25.7143 2.85714 21.2857 2.85714 15.7143C2.85714 10.1429 7.28571 5.71432 12.8571 5.71432C13.8571 5.71432 14.8143 5.85718 15.7143 6.12861V3.18575C14.8 2.97146 13.8429 2.85718 12.8571 2.85718C5.71429 2.85718 0 8.57146 0 15.7143C0 22.8572 5.71429 28.5715 12.8571 28.5715C20 28.5715 25.7143 22.8572 25.7143 15.7143C25.7143 15.2286 25.6857 14.7572 25.6286 14.2857H22.7429Z" fill="#0F1C2E"/>
<path d="M25.7143 4.28571V0H22.8571V4.28571H18.5714V7.14286H22.8571V11.4286H25.7143V7.14286H30V4.28571H25.7143Z" fill="#0F1C2E"/>
</svg>
