<svg width="27" height="23" viewBox="0 0 27 23" fill="none" xmlns="http://www.w3.org/2000/svg">
<path d="M3.9503 21.5189L10.6417 6.81887M10.6417 6.81887L11.9927 6.28228C12.7093 5.99765 13.3133 5.39525 13.6718 4.6076C14.0303 3.81995 14.114 2.91156 13.9045 2.08228L13.5095 0.51887L12.1585 1.05546C11.4419 1.34008 10.8379 1.94248 10.4794 2.73014C10.1209 3.51779 10.0372 4.42617 10.2467 5.25546L10.6417 6.81887ZM6.11545 16.7624C6.42724 16.0743 6.49962 15.2816 6.31675 14.5578C6.13388 13.8341 5.71065 13.2382 5.13973 12.9007L3.80406 12.1152L3.07278 13.7217C2.76099 14.4098 2.68861 15.2025 2.87148 15.9263C3.05435 16.65 3.47758 17.2459 4.0485 17.5833L5.38417 18.3689M6.11545 16.7624L5.38417 18.3689M6.11545 16.7624C6.42949 16.0756 6.95695 15.5505 7.58236 15.3021C8.20776 15.0537 8.88014 15.1022 9.45229 15.437L10.788 16.2225L10.0567 17.829C9.74265 18.5158 9.21519 19.0408 8.58979 19.2892C7.96438 19.5376 7.292 19.4892 6.71985 19.1544L5.38417 18.3689M8.02729 12.5624C8.33908 11.8743 8.41146 11.0816 8.22859 10.3578C8.04571 9.63406 7.62249 9.03822 7.05157 8.70074L5.71589 7.91523L4.98461 9.52172C4.67282 10.2098 4.60044 11.0025 4.78332 11.7263C4.96619 12.45 5.38942 13.0459 5.96034 13.3833L7.29601 14.1689M8.02729 12.5624L7.29601 14.1689M8.02729 12.5624C8.34133 11.8756 8.86879 11.3505 9.49419 11.1021C10.1196 10.8537 10.792 10.9022 11.3641 11.237L12.6998 12.0225L11.9685 13.629C11.6545 14.3158 11.127 14.8408 10.5016 15.0892C9.87622 15.3376 9.20384 15.2892 8.63168 14.9544L7.29601 14.1689M9.93913 8.36237C10.2509 7.67428 10.3233 6.88158 10.1404 6.15782C9.95755 5.43407 9.53432 4.83822 8.9634 4.50075L7.62773 3.71523L6.89645 5.32173C6.58466 6.00981 6.51228 6.80251 6.69515 7.52627C6.87803 8.25003 7.30125 8.84587 7.87218 9.18335L9.20785 9.96887M9.93913 8.36237L9.20785 9.96887M9.93913 8.36237C10.2532 7.6756 10.7806 7.15054 11.406 6.90213C12.0314 6.65373 12.7038 6.70222 13.276 7.03699L14.6116 7.82251L13.8804 9.42901C13.5663 10.1158 13.0389 10.6408 12.4135 10.8892C11.7881 11.1376 11.1157 11.0892 10.5435 10.7544L9.20785 9.96887" stroke="white" stroke-linecap="round" stroke-linejoin="round"/>
<path d="M19.9502 19.3256L25.9502 11.8029L19.9502 4.28021" stroke="white" stroke-width="1.5" stroke-linecap="round" stroke-linejoin="round"/>
</svg>
