<svg width="30" height="24" viewBox="0 0 30 24" fill="none" xmlns="http://www.w3.org/2000/svg">
<path d="M0.956249 22.47C0.539969 23.1361 1.01881 24 1.80425 24H28.1958C28.9812 24 29.46 23.136 29.0438 22.47L15.848 1.3568C15.4563 0.730129 14.5437 0.730129 14.152 1.3568L0.956249 22.47ZM16.3636 19.2105C16.3636 19.7628 15.9159 20.2105 15.3636 20.2105H14.6364C14.0841 20.2105 13.6364 19.7628 13.6364 19.2105V18.6842C13.6364 18.1319 14.0841 17.6842 14.6364 17.6842H15.3636C15.9159 17.6842 16.3636 18.1319 16.3636 18.6842V19.2105ZM16.3636 14.1579C16.3636 14.7102 15.9159 15.1579 15.3636 15.1579H14.6364C14.0841 15.1579 13.6364 14.7102 13.6364 14.1579V11.1053C13.6364 10.553 14.0841 10.1053 14.6364 10.1053H15.3636C15.9159 10.1053 16.3636 10.553 16.3636 11.1053V14.1579Z" fill="#0F1C2E"/>
</svg>
