<svg width="17" height="15" viewBox="0 0 17 15" fill="none" xmlns="http://www.w3.org/2000/svg">
<path d="M15.6742 1.06877C15.7352 1.16457 15.7496 1.23423 15.7495 1.28358C15.7495 1.33281 15.7351 1.40162 15.6746 1.49682L7.7436 13.6306L7.74412 13.6314C7.69381 13.7045 7.63463 13.749 7.56031 13.7773L7.55866 13.7783C7.48105 13.8082 7.40704 13.8141 7.32371 13.7947C7.23972 13.7752 7.17189 13.7361 7.10987 13.6715C7.04939 13.6076 7.01206 13.5353 6.99529 13.4423L5.98138 7.46661L5.94626 7.25862L5.77272 7.13869L0.789194 3.68883C0.712077 3.63421 0.662339 3.56988 0.630119 3.48794L0.629594 3.48712C0.597848 3.4042 0.591886 3.32663 0.609608 3.24287C0.627511 3.15861 0.664205 3.09272 0.724588 3.03429C0.76753 2.99318 0.815051 2.96383 0.873042 2.94561L0.935659 2.93123L15.2858 0.887646C15.3983 0.872959 15.4674 0.889458 15.5121 0.910351C15.5567 0.931251 15.6133 0.97316 15.6742 1.06877Z" stroke="#F5F5F5"/>
</svg>
