<svg width="24" height="30" viewBox="0 0 24 30" fill="none" xmlns="http://www.w3.org/2000/svg">
<path d="M12 22.557C12 20.4304 12.725 18.6329 14.175 17.1646C15.625 15.6962 17.4 14.962 19.5 14.962C17.4 14.962 15.625 14.2278 14.175 12.7595C12.725 11.2911 12 9.49367 12 7.36709C12 9.49367 11.275 11.2911 9.825 12.7595C8.375 14.2278 6.6 14.962 4.5 14.962C6.6 14.962 8.375 15.6962 9.825 17.1646C11.275 18.6329 12 20.4304 12 22.557ZM12 30C11.825 30 11.6625 29.9873 11.5125 29.962C11.3625 29.9367 11.2125 29.8987 11.0625 29.8481C7.6875 28.7089 5 26.6013 3 23.5253C1 20.4494 0 17.1392 0 13.5949V6.41772C0 5.78481 0.18125 5.21519 0.54375 4.70886C0.90625 4.20253 1.375 3.83544 1.95 3.60759L10.95 0.189873C11.3 0.0632911 11.65 0 12 0C12.35 0 12.7 0.0632911 13.05 0.189873L22.05 3.60759C22.625 3.83544 23.0938 4.20253 23.4563 4.70886C23.8188 5.21519 24 5.78481 24 6.41772V13.5949C24 17.1392 23 20.4494 21 23.5253C19 26.6013 16.3125 28.7089 12.9375 29.8481C12.7875 29.8987 12.6375 29.9367 12.4875 29.962C12.3375 29.9873 12.175 30 12 30Z" fill="#0F1C2E"/>
</svg>
