<svg width="26" height="26" viewBox="0 0 26 26" fill="none" xmlns="http://www.w3.org/2000/svg">
<path d="M23.1111 10.1111V23.1111H2.86V2.88889H15.86V0H2.88889C1.3 0 0 1.3 0 2.88889V23.1111C0 24.7 1.3 26 2.88889 26H23.1111C24.7 26 26 24.7 26 23.1111V10.1111H23.1111ZM20.1933 10.1111L21.5511 7.13556L24.5267 5.77778L21.5511 4.42L20.1933 1.44444L18.8356 4.42L15.86 5.77778L18.8356 7.13556L20.1933 10.1111ZM14.7767 11.1944L12.9711 7.22222L11.1656 11.1944L7.19333 13L11.1656 14.8056L12.9711 18.7778L14.7767 14.8056L18.7489 13L14.7767 11.1944Z" fill="#0F1C2E"/>
</svg>
