<svg width="32" height="26" viewBox="0 0 32 26" fill="none" xmlns="http://www.w3.org/2000/svg">
<path d="M18.8955 4.38224e-10C19.6867 -1.11409e-05 20.4644 0.21242 21.1455 0.615234C21.8264 1.01805 22.3862 1.59701 22.7646 2.29199L23.4697 3.58594L23.5693 3.74219C23.6792 3.89159 23.8194 4.01881 23.9824 4.11523C24.1998 4.24377 24.4491 4.31246 24.7041 4.3125H27.5996C28.7624 4.3125 29.8809 4.76988 30.707 5.58887C31.5336 6.40832 32 7.52297 32 8.6875V21.625C32 22.7895 31.5336 23.9042 30.707 24.7236C29.8809 25.5426 28.7624 26 27.5996 26H4.40039C3.23763 26 2.1191 25.5426 1.29297 24.7236C0.466391 23.9042 0 22.7895 0 21.625V8.6875C0 7.52297 0.466391 6.40832 1.29297 5.58887C2.1191 4.76988 3.23763 4.3125 4.40039 4.3125H7.2959C7.55071 4.31248 7.80029 4.24455 8.01758 4.11621C8.23479 3.9879 8.41072 3.8041 8.5293 3.58691L9.23828 2.28809L9.38965 2.0332C9.76003 1.45213 10.2628 0.965068 10.8584 0.613281C11.5389 0.211387 12.3153 3.07897e-05 13.1055 4.38224e-10H18.8955ZM13.1055 3C12.8507 3.00003 12.6011 3.06796 12.3838 3.19629C12.1666 3.3246 11.9906 3.50842 11.8721 3.72559L11.1631 5.02441C10.7841 5.7185 10.2237 6.29716 9.54297 6.69922C8.94739 7.05097 8.27828 7.2568 7.59082 7.30273L7.2959 7.3125H4.40039C4.02492 7.3125 3.66685 7.46041 3.40527 7.71973C3.14417 7.9786 3 8.32706 3 8.6875V21.625C3 21.9854 3.14417 22.3339 3.40527 22.5928C3.66685 22.8521 4.02492 23 4.40039 23H27.5996C27.9751 23 28.3332 22.8521 28.5947 22.5928C28.8558 22.3339 29 21.9854 29 21.625V8.6875C29 8.32706 28.8558 7.9786 28.5947 7.71973C28.3332 7.46041 27.9751 7.3125 27.5996 7.3125H24.7041C23.913 7.31246 23.1361 7.10003 22.4551 6.69727C21.859 6.34473 21.3555 5.85753 20.9854 5.27539L20.835 5.02051L20.1309 3.72656H20.1299C20.0115 3.50921 19.8353 3.32578 19.6182 3.19727C19.4007 3.06864 19.1506 3 18.8955 3H13.1055ZM16 8.625C19.2186 8.625 21.8496 11.2151 21.8496 14.4375C21.8496 17.6599 19.2186 20.25 16 20.25C12.7814 20.25 10.1504 17.6599 10.1504 14.4375C10.1504 11.2151 12.7814 8.625 16 8.625ZM16 11.625C14.4137 11.625 13.1504 12.8964 13.1504 14.4375C13.1504 15.9786 14.4137 17.25 16 17.25C17.5863 17.25 18.8496 15.9786 18.8496 14.4375C18.8496 12.8964 17.5863 11.625 16 11.625Z" fill="#0F1C2E"/>
</svg>
