<svg width="22" height="27" viewBox="0 0 22 27" fill="none" xmlns="http://www.w3.org/2000/svg">
<path d="M13.125 0.000976562C13.6669 0.000361737 14.2032 0.107112 14.7031 0.316406C15.203 0.525675 15.6564 0.832055 16.0371 1.21777L20.2949 5.52051C20.6783 5.90564 20.9819 6.3634 21.1885 6.86621C21.3948 7.36856 21.5006 7.90707 21.5 8.4502V22.8496C21.5 23.8134 21.1217 24.7413 20.4434 25.4268C19.7646 26.1127 18.8407 26.5 17.875 26.5H3.625C2.65934 26.5 1.73543 26.1127 1.05664 25.4268C0.378297 24.7413 0 23.8134 0 22.8496V3.65039C0 2.68655 0.378296 1.75873 1.05664 1.07324C1.73543 0.387309 2.65934 0 3.625 0H13.125V0.000976562ZM3.625 2.5C3.33089 2.5 3.04599 2.6178 2.83398 2.83203C2.62154 3.04672 2.5 3.34119 2.5 3.65039V22.8496C2.5 23.1588 2.62154 23.4533 2.83398 23.668C3.04599 23.8822 3.33089 24 3.625 24H17.875C18.1691 24 18.454 23.8822 18.666 23.668C18.8785 23.4533 19 23.1588 19 22.8496V9.7002H14.3125C13.6618 9.7002 13.0401 9.43843 12.584 8.97754C12.1285 8.51712 11.875 7.89545 11.875 7.25V2.5H3.625ZM13.4238 13.5703C13.9094 13.0798 14.7007 13.0761 15.1914 13.5615C15.6821 14.0471 15.6866 14.8384 15.2012 15.3291L10.4512 20.1289C10.2164 20.3662 9.89629 20.5 9.5625 20.5C9.22871 20.5 8.90861 20.3662 8.67383 20.1289L6.29883 17.7295C5.81325 17.2388 5.81792 16.4475 6.30859 15.9619C6.7993 15.4763 7.59058 15.48 8.07617 15.9707L9.5625 17.4727L13.4238 13.5703ZM14.375 7.2002H18.4395L14.375 3.09277V7.2002Z" fill="#0F1C2E"/>
</svg>
