<svg width="27" height="28" viewBox="0 0 27 28" fill="none" xmlns="http://www.w3.org/2000/svg">
<path d="M0 12.4444H11.5921V0H0V12.4444ZM2.89802 3.11111H8.69406V9.33333H2.89802V3.11111Z" fill="black"/>
<path d="M0 28.0001H11.5921V15.5557H0V28.0001ZM2.89802 18.6668H8.69406V24.889H2.89802V18.6668Z" fill="black"/>
<path d="M14.4901 0V12.4444H26.0822V0H14.4901ZM23.1842 9.33333H17.3881V3.11111H23.1842V9.33333Z" fill="black"/>
<path d="M26.0822 24.8889H23.1842V28H26.0822V24.8889Z" fill="black"/>
<path d="M17.3881 15.5557H14.4901V18.6668H17.3881V15.5557Z" fill="black"/>
<path d="M20.2861 18.6667H17.3881V21.7779H20.2861V18.6667Z" fill="black"/>
<path d="M17.3881 21.7778H14.4901V24.8889H17.3881V21.7778Z" fill="black"/>
<path d="M20.2861 24.8889H17.3881V28H20.2861V24.8889Z" fill="black"/>
<path d="M23.1842 21.7778H20.2861V24.8889H23.1842V21.7778Z" fill="black"/>
<path d="M23.1842 15.5557H20.2861V18.6668H23.1842V15.5557Z" fill="black"/>
<path d="M26.0822 18.6667H23.1842V21.7779H26.0822V18.6667Z" fill="black"/>
</svg>
