<?xml version="1.0" encoding="UTF-8"?>
<svg xmlns="http://www.w3.org/2000/svg" version="1.1" xmlns:xlink="http://www.w3.org/1999/xlink" viewBox="0 0 2500 1040">
  <defs>
    <style>
      .cls-1 {
        mask: url(#mask);
      }

      .cls-2 {
        fill: #fff;
      }

      .cls-2, .cls-3 {
        fill-rule: evenodd;
      }

      .cls-3 {
        fill: #5167fc;
      }
    </style>
    <mask id="mask" x="0" y="3.8" width="2498.2" height="1036.1" maskUnits="userSpaceOnUse">
      <g id="b">
        <path id="a" class="cls-2" d="M.3,3.8h2497.9v1036.1H.3V3.8Z"/>
      </g>
    </mask>
  </defs>
  <!-- Generator: Adobe Illustrator 28.7.2, SVG Export Plug-In . SVG Version: 1.2.0 Build 154)  -->
  <g>
    <g id="Capa_1">
      <g class="cls-1">
        <path class="cls-3" d="M261.1,469.9c-53.8-19.9-83.3-35.4-83.3-59.7s17-32.5,47.2-32.5c55.3,0,112.1,21.4,151.2,40.6l22.1-136.4c-31-14.8-94.4-39.1-182.2-39.1s-113.6,16.2-150.4,46.5c-38.4,31.7-58.3,77.4-58.3,132.7,0,100.3,61.2,143.1,160.8,179.2,64.2,22.9,85.5,39.1,85.5,64.2s-20.7,38.3-58.3,38.3-123.2-22.9-173.3-52.4L0,789.2c42.8,24.3,122.4,49.4,205,49.4s120.2-15.5,157.1-45c41.3-32.5,62.7-80.4,62.7-142.3,0-102.5-62.7-145.3-163.7-181.4h0ZM784.9,389.5l22.1-135.7h-116.8V89.1l-157,25.8-22.7,138.9-55.2,9-20.7,126.7h75.7v266.2c0,69.3,17.7,117.3,53.8,146.8,30.2,24.3,73.7,36.1,135,36.1s76-8.1,95.9-13.3v-143.8c-11.1,3-36.1,8.1-53.1,8.1-36.1,0-51.6-18.4-51.6-60.5v-239.7h94.7ZM1135.7,245.9c-51.6,0-92.9,27.1-109.1,75.8l-11.1-67.8h-160v573.7h182.9v-372.4c22.9-28,55.3-38.2,99.6-38.2s19.9,0,32.5,2.2v-168.9c-12.5-2.9-23.6-4.4-34.7-4.4ZM1306.8,197c53.1,0,95.9-43.5,95.9-96.6S1359.9,3.8,1306.8,3.8s-96.6,42.8-96.6,96.6,42.8,96.6,96.6,96.6h0ZM1214.6,253.8h183.6v573.7h-183.6V253.8ZM1918.6,305.4c-32.5-42-77.4-62.7-135-62.7s-99.6,22.1-143.1,68.6l-9.6-57.5h-160.8v786.1l182.9-30.2v-184.4c28,8.8,56.8,13.3,82.6,13.3,45.7,0,112.1-11.8,163.7-67.8,49.4-53.8,74.5-137.2,74.5-247.1s-18.4-171.1-55.3-218.3h0ZM1766.7,659.4c-14.8,28-37.6,42.8-64.2,42.8s-34.7-3.7-49.4-11.1v-272.9c31-32.4,59-36.1,69.3-36.1,46.5,0,69.3,50.1,69.3,148.2s-8.1,99.6-25.1,129.1h0ZM2498.2,535.5c0-91.4-19.9-163.7-59-214.6-39.8-51.6-99.6-78.2-175.5-78.2-155.6,0-252.2,115-252.2,299.4s25.8,180.7,76.7,230.1c45.7,44.2,111.4,66.4,196.2,66.4s150.4-18.4,196.2-48.7l-19.9-125.4c-45,24.3-97.3,37.6-156.3,37.6s-59.7-7.4-77.4-22.9c-19.2-16.2-30.2-42.8-33.9-80.4h303.1c.7-8.8,2.2-50.1,2.2-63.4h0ZM2191.5,486.8c5.2-81.9,27.3-120.2,69.3-120.2s62.7,39.1,65.6,120.2h-135Z"/>
      </g>
    </g>
  </g>
</svg>