<svg width="31" height="17" viewBox="0 0 31 17" fill="none" xmlns="http://www.w3.org/2000/svg">
<path d="M11.2693 16.9201C10.9199 17.0133 10.5767 17.025 10.2397 16.9551C9.90278 16.8851 9.6719 16.6987 9.5471 16.3957C9.4223 16.1393 9.44726 15.9063 9.62198 15.6965C9.7967 15.4868 10.0338 15.3586 10.3333 15.312C11.9058 15.009 13.1288 14.4671 14.0024 13.6864C14.876 12.9057 15.3128 11.9559 15.3128 10.8373C15.3128 10.1381 15.057 9.49716 14.5453 8.91451C14.0336 8.33186 13.3659 7.91236 12.5423 7.65599C11.9682 8.98443 11.288 10.173 10.5018 11.2218C9.71558 12.2706 8.84823 13.1795 7.89976 13.9486L8.16184 14.7177C8.23672 14.9741 8.21176 15.2129 8.08696 15.4343C7.96216 15.6557 7.76248 15.8014 7.48792 15.8713C7.21337 15.9412 6.95753 15.9238 6.72041 15.8189C6.48329 15.714 6.32729 15.5334 6.25242 15.277L6.21498 15.0673C5.56602 15.3936 4.95451 15.6441 4.38043 15.8189C3.80636 15.9937 3.24477 16.0811 2.69565 16.0811C1.89694 16.0811 1.24799 15.8364 0.748792 15.3469C0.249597 14.8575 0 14.205 0 13.3892C0 12.154 0.499195 10.9305 1.49758 9.71857C2.49597 8.50666 3.7814 7.55112 5.35386 6.85194C5.37882 6.40913 5.40378 5.97214 5.42874 5.54098C5.4537 5.10982 5.49114 4.67284 5.54106 4.23002C4.96699 4.25333 4.38043 4.25333 3.7814 4.23002C3.18237 4.20672 2.54589 4.17176 1.87198 4.12515C1.57246 4.10184 1.31663 3.99696 1.10447 3.81052C0.892311 3.62407 0.786232 3.40266 0.786232 3.1463C0.786232 2.88993 0.886071 2.68018 1.08575 2.51704C1.28543 2.3539 1.52254 2.29563 1.7971 2.34224C2.2963 2.38886 2.86413 2.42382 3.5006 2.44712C4.13708 2.47043 4.89211 2.48208 5.7657 2.48208C5.79066 2.22571 5.81562 1.98683 5.84058 1.76542C5.86554 1.54402 5.8905 1.30513 5.91546 1.04877C5.94042 0.745789 6.06522 0.495251 6.28986 0.29715C6.51449 0.0990501 6.77657 0 7.07609 0C7.35064 0 7.5628 0.110703 7.71256 0.332109C7.86232 0.553515 7.91224 0.792401 7.86232 1.04877C7.8124 1.28183 7.76872 1.51488 7.73128 1.74794C7.69384 1.981 7.65016 2.21406 7.60024 2.44712C8.82327 2.40051 9.95894 2.32476 11.0072 2.21989C12.0556 2.11501 13.0539 1.96935 14.0024 1.7829C14.277 1.73629 14.5266 1.77708 14.7512 1.90526C14.9758 2.03344 15.0882 2.22571 15.0882 2.48208C15.0882 2.76175 14.9821 2.99481 14.7699 3.18126C14.5578 3.3677 14.3019 3.48423 14.0024 3.53085C12.8792 3.69399 11.7748 3.828 10.689 3.93287C9.60326 4.03775 8.51127 4.11349 7.41304 4.16011C7.36312 4.48639 7.33192 4.82432 7.31944 5.17391C7.30696 5.5235 7.27576 5.86144 7.22585 6.18772C7.92472 6.00127 8.60487 5.87309 9.2663 5.80317C9.92774 5.73326 10.5829 5.7216 11.2319 5.76821L11.3442 5.27879C11.3941 5.02242 11.5189 4.83598 11.7186 4.71945C11.9183 4.60292 12.1554 4.56796 12.43 4.61457C12.7544 4.68449 12.9978 4.85346 13.16 5.12147C13.3223 5.38949 13.341 5.66334 13.2162 5.94301L13.1413 6.08284C14.4143 6.40913 15.4314 7.01508 16.1926 7.90071C16.9539 8.78633 17.3345 9.77683 17.3345 10.8722C17.3345 12.3405 16.8041 13.599 15.7434 14.6478C14.6826 15.6965 13.1912 16.454 11.2693 16.9201ZM23.2874 16.2559C21.8647 16.2559 20.7415 15.8772 19.9179 15.1197C19.0942 14.3623 18.6824 13.331 18.6824 12.0259C18.6824 10.8139 19.0942 9.82344 19.9179 9.05435C20.7415 8.28525 22.0644 7.66765 23.8865 7.20153C24.4605 7.06169 25.0908 6.93351 25.7772 6.81698C26.4636 6.70045 27.2061 6.59557 28.0048 6.50235C27.9549 5.40697 27.6804 4.60874 27.1812 4.10767C26.682 3.60659 25.9082 3.35605 24.8599 3.35605C24.3357 3.35605 23.8241 3.42597 23.3249 3.5658C22.8257 3.70564 22.2391 3.9387 21.5652 4.26498C21.2657 4.42812 20.9537 4.47474 20.6292 4.40482C20.3048 4.3349 20.0552 4.16011 19.8804 3.88043C19.7057 3.60076 19.6683 3.30361 19.7681 2.98898C19.868 2.67435 20.0676 2.43547 20.3671 2.27233C21.1409 1.87613 21.9708 1.55567 22.8569 1.31096C23.743 1.06625 24.6477 0.94389 25.5713 0.94389C27.3434 0.94389 28.6912 1.45662 29.6147 2.48208C30.5382 3.50754 31 4.99912 31 6.95682V14.7876C31 15.1139 30.8814 15.3877 30.6443 15.6091C30.4072 15.8305 30.1139 15.9412 29.7645 15.9412H29.5773C29.2528 15.9412 28.9783 15.8422 28.7536 15.6441C28.529 15.446 28.3917 15.2071 28.3418 14.9274L28.2669 14.3681C27.568 14.9507 26.8005 15.411 25.9644 15.749C25.1282 16.0869 24.2359 16.2559 23.2874 16.2559ZM3.03261 14.1933C3.45692 14.1933 3.89372 14.1117 4.343 13.9486C4.79227 13.7854 5.26651 13.5407 5.7657 13.2145C5.59098 12.3288 5.46618 11.5248 5.3913 10.8023C5.31643 10.0798 5.27899 9.39228 5.27899 8.73972C4.33052 9.29906 3.54428 9.98658 2.92029 10.8023C2.2963 11.618 1.9843 12.3871 1.9843 13.1096C1.9843 13.4126 2.09038 13.6689 2.30254 13.8787C2.51469 14.0884 2.75805 14.1933 3.03261 14.1933ZM7.45048 11.921C8.17432 11.2684 8.80455 10.5634 9.34118 9.80596C9.87782 9.04852 10.3209 8.23864 10.6703 7.37632C10.0962 7.37632 9.5159 7.42293 8.92935 7.51616C8.34279 7.60938 7.75 7.74922 7.15097 7.93566C7.10105 8.54162 7.10729 9.17088 7.16969 9.82344C7.23209 10.476 7.32568 11.1752 7.45048 11.921ZM24.1486 13.8787C24.8474 13.8787 25.5276 13.7272 26.189 13.4242C26.8504 13.1212 27.4557 12.6901 28.0048 12.1307V8.42509C27.4308 8.49501 26.9004 8.57658 26.4136 8.6698C25.9269 8.76302 25.4714 8.8679 25.0471 8.98443C23.9239 9.31071 23.0815 9.71857 22.5199 10.208C21.9583 10.6974 21.6775 11.2684 21.6775 11.921C21.6775 12.5269 21.9022 13.0047 22.3514 13.3543C22.8007 13.7039 23.3998 13.8787 24.1486 13.8787Z" fill="black"/>
</svg>
